<?xml version="1.0" encoding="UTF-8"?>
<svg version="1.1" viewBox="0 0 2048 544" width="752" height="200" xmlns="http://www.w3.org/2000/svg">
<path transform="translate(0)" d="m0 0h2048v544h-2048z" fill="#FEFEFE"/>
<path transform="translate(365,125)" d="m0 0h40l4 3 6 19 3 10 20 8 4 2 4-1 19-10 4-2 7 1 8 7 18 18 2 4v6l-9 17-3 5 1 7 8 21 27 8 5 5v41l-5 5-24 7h-3l-3 10-6 13v6l11 20 1 9-9 10-16 16-5 3h-6l-23-13-5 1-16 7-6 2-7 24-4 7-2 1h-41l-5-5-8-27-16-6-8-4-5 1-17 10-5 2-7-1-8-7-18-18-3-6 4-10 10-18-2-6-6-14-2-7-10-2-17-5-5-5v-41l5-5 25-7 2-1 6-16 4-9-8-16-6-11 2-6 7-8 17-17 5-3h6l23 13 5-1 19-8 3-1 8-26 3-5z" fill="#A40B12"/>
<path transform="translate(171,266)" d="m0 0 10 1 12 3 2 5 1 12 5 4 4 3 18-2 7 9 5 10-3 5-4 5h-2l1 16 13 8 1 7-4 16-4 2-15 1-1 4-4 5 1 10 1 8-7 6-10 6-5-1-10-8-9 1-6 2-6 11-1 1-11-1-11-3-2-3-1-15-5-2-5-4-18 2-8-11-3-5v-5l9-11-2-13-9-6-4-2-1-4 4-17 2-3 3-1 12-1 4-4 4-6-1-7-2-10 9-7 9-5 4 1 10 8 11-1 5-3 6-10z" fill="#A50B12"/>
<path transform="translate(382,205)" d="m0 0 15 1 16 5 13 8 10 9 7 10 5 10 4 14v22l-4 15-5 10-7 9-9 9-13 8-14 5-5 1h-21l-12-3-16-8-11-9-9-12-6-12-3-11-1-8v-9l3-16 6-14 7-9 7-8 10-7 12-6 11-3z" fill="#040101"/>
<path transform="translate(1559,207)" d="m0 0h17l15 4 8 6 5 5 6 9 5 12 2 11v26l-4 19-5 14-7 13-11 13-10 7-11 5-8 2h-24l-12-5-8-6-7-8-6-12-3-13-1-6v-18l3-18 6-18 8-14 9-11 8-7 16-8z" fill="#EE0C1B"/>
<path transform="translate(1431,207)" d="m0 0h18l11 3 8 4 9 8 6 10 4 10 3 17v14l-3 20-5 16-8 16-9 11-9 8-14 7-10 2h-21l-12-4-6-4-7-6-7-11-4-10-2-10v-28l4-19 6-15 5-9 7-9 9-9 13-8 9-3z" fill="#EE0C1B"/>
<path transform="translate(711,208)" d="m0 0 2 2-9 71-8 65-2 6h-26l-1-3 9-64 7-36v-2l-9 21-15 37-16 38-3 8-2 1h-22l-3-34-4-55v-17h-2l-1 13-7 44-9 48-7 1-20-1 2-14 17-89 7-37 1-2h37l6 65 2 31 1 4 7-20 32-80z" fill="#050101"/>
<path transform="translate(873,208)" d="m0 0h19l13 2 11 4 6 4 6 7 4 11v17l-4 13-7 10-9 8-8 4h-2l18 55 2 8-1 1h-28l-2-1-15-53-1-2h-11l-9 55-1 1h-26l-1-1 1-11 13-84 7-43 2-3z" fill="#050101"/>
<path transform="translate(365,125)" d="m0 0h40l4 3 6 19 3 10 20 8 4 2 4-1 19-10 4-2 7 1 8 7 18 18 2 4v6l-9 17-3 5 1 7 8 21 27 8 5 5v41l-5 5-24 7h-3l-3 10-6 13v6l11 20 1 9-9 10-16 16-5 3h-6l-23-13-5 1-16 7-6 2-7 24-4 7-2 1h-41l-5-5-8-27-16-6-8-4-5 1-17 10-5 2-7-1-8-7-18-18-3-6 4-10 10-18-2-6-6-14-2-7-10-2-17-5-5-5v-41l5-5 25-7 2-1 6-16 4-9-8-16-6-11 2-6 7-8 17-17 5-3h6l23 13 5-1 19-8 3-1 8-26 3-5zm3 8-3 7-6 21v3l-11 3-19 9h-6l-22-12-5-1-16 16-6 7 1 5 12 21v6l-8 16-4 12-7 3-21 6-3 2v32l3 3 25 7 4 4 5 15 6 12-1 7-12 21 1 5 19 19 1 2 7-1 21-12 7 1 18 8 10 3 3 8 6 22 1 1h33l3-8 6-21 3-3 13-4 15-7 7 1 20 12h5l7-8 6-5 7-8 1-1-1-7-12-21 1-5 6-13 5-13v-3l30-9 2-2v-23l-1-9-3-2-23-6-4-2-5-15-7-15 1-7 8-15 4-7-1-4-21-21-5 1-23 13-5-1-19-9-10-3-8-28-2-3z" fill="#070101"/>
<path transform="translate(799,208)" d="m0 0 2 1 9 80 6 55v7l-1 1h-28l-1-1-3-33h-34l-10 26-3 7-2 1h-28l1-5 11-28 12-28 16-39 15-36 3-7z" fill="#050101"/>
<path transform="translate(956,209)" d="m0 0h29l-9 57v6h2l2-4 8-9 11-18 15-23 4-6 1-3h35l-2 4-15 20-12 15-13 17-6 8 1 5 18 48 9 23-1 3h-31l-3-7-12-36-6-17-8 6-2 2-8 50-2 2h-26l-1-3 12-76z" fill="#060101"/>
<path transform="translate(1066,209)" d="m0 0h78l-6 26-1 1h-47l-4 26-1 3h45l-1 9-4 17-1 1h-43l-2 18-3 15h52l-5 26-2 1h-74l-3-1 1-12 16-103 4-26z" fill="#050101"/>
<path transform="translate(1765,207)" d="m0 0h20l14 3 8 3-4 17-3 9-9-2-6-2h-19l-6 3-4 5v10l6 7 21 14 7 6 6 9 3 11v13l-3 11-5 10-5 6-10 7-9 4-10 2h-25l-17-5-4-2 1-10 5-16 5 1 14 4 7 1h11l9-3 4-5 1-3v-7l-4-7-8-7-13-9-10-9-6-10-2-12 2-15 4-9 6-8 7-7 13-6z" fill="#EF0D1C"/>
<path transform="translate(154,155)" d="m0 0h6l5 8 10 1 7-7 6 2 8 5 1 2-1 10 4 6 12 1 4 10 1 5-6 5-3 2-1 8 2 4 5 4-1 6-5 8-1 1h-13l-3 3h-2l-1 13-10 4h-6l-5-7-2-1-10-1-2 4-5 3-12-6-2-3 1-4v-7l-6-5-10-1-3-8-1-8 8-6 1-9-6-7 1-7 5-8h13l5-4 1-12z" fill="#A50B12"/>
<path transform="translate(1289,209)" d="m0 0h91l-5 24-2 3-29 1-5 31-13 83-6 1h-13l-10-1 6-40 11-72 1-3h-32l2-11z" fill="#EE0C1B"/>
<path transform="translate(1155,209)" d="m0 0h91l-5 26-1 1-30 1-17 110-2 5h-27l1-14 12-77 4-25h-32z" fill="#040101"/>
<path transform="translate(1644,209)" d="m0 0h28l-1 13-14 92-2 10h49l1 2-5 24-1 1h-76l1-14 15-97z" fill="#EE0C1B"/>
<path transform="translate(381,195)" d="m0 0 17 1 17 5 16 9 13 12 7 10 7 14 4 15v24l-4 16-7 14-10 13-12 10-15 8-13 4-6 1h-21l-16-4-16-8-8-6-7-6-9-12-7-14-4-15-1-8v-9l2-13 5-15 7-12 8-10 10-9 14-8 14-5zm1 10-15 2-15 6-14 10-9 10-7 12-5 16-1 8v9l3 16 5 12 8 11 6 7 13 9 14 6 9 2h21l12-3 14-7 9-7 9-9 7-11 5-15 1-5v-22l-4-14-6-12-9-11-8-7-12-7-16-5z" fill="#FEFEFE"/>
<path transform="translate(1558,233)" d="m0 0h13l8 4 5 6 3 8 1 6v19l-3 18-5 14-6 9-5 6-8 4-12 1-9-3-6-7-3-7-1-5v-25l4-19 8-16 8-9z" fill="#FEFEFE"/>
<path transform="translate(1432,233)" d="m0 0h11l10 5 5 8 2 7v26l-3 16-5 14-7 10-8 7-8 2-12-1-7-4-5-8-3-12v-16l3-19 5-15 7-11 7-6z" fill="#FEFEFE"/>
<path transform="translate(157,307)" d="m0 0h17l10 4 10 9 5 10 1 4v13l-4 11-6 8-8 6-9 3h-14l-11-4-10-9-5-8-2-8v-10l3-10 7-10 10-7z" fill="#040101"/>
<path transform="translate(839,387)" d="m0 0h15l9 4 7 8 3 9-1 14-5 12-6 7 1 4 2 5-5 3h-4l-2-5-2-1-10 2-11-1-8-5-6-7-3-9v-9l4-13 6-8 8-7z" fill="#0A0102"/>
<path transform="translate(628,433)" d="m0 0h59l51 1v11l-1 1h-184v-12z" fill="#EB0C1B"/>
<path transform="translate(1615,434)" d="m0 0h185v11l-1 1h-184z" fill="#EF0D1C"/>
<path transform="translate(171,266)" d="m0 0 10 1 12 3 2 5 1 12 5 4 4 3 18-2 7 9 5 10-3 5-4 5h-2l1 16 13 8 1 7-4 16-4 2-15 1-1 4-4 5 1 10 1 8-7 6-10 6-5-1-10-8-9 1-6 2-6 11-1 1-11-1-11-3-2-3-1-15-5-2-5-4-18 2-8-11-3-5v-5l9-11-2-13-9-6-4-2-1-4 4-17 2-3 3-1 12-1 4-4 4-6-1-7-2-10 9-7 9-5 4 1 10 8 11-1 5-3 6-10zm2 4-4 5-4 7-9 2h-10l-10-8-6 2-8 6-2 4 3 9-1 6-8 10-15 3-3 5-1 5v9l10 6h2l2 13v7l-8 8 1 7 6 10 1 1 9-1 7-2 13 8 1 2 1 13 4 3 6 2h9l5-8 5-5 16-1 9 7 7-1 8-6 1-1v-8l-1-3v-7l8-11 14-2 3-2 3-11v-5l-5-4-8-5-2-9v-7l3-5 5-5-1-6-7-10-4-1-11 2-10-5-5-5-1-12-1-3-12-3z" fill="#0E0102"/>
<path transform="translate(201,109)" d="m0 0h13l8 4 7 8 2 5v12l-4 8-8 7-5 2h-13l-6-3-5-4-5-8-1-10 3-10 6-7z" fill="#0B0102"/>
<path transform="translate(162,182)" d="m0 0h7l9 3 6 5 4 7 1 4v8l-3 9-6 7-6 3-5 1h-7l-9-3-7-7-3-6v-15l3-6 5-5 4-3z" fill="#050101"/>
<path transform="translate(1512,404)" d="m0 0h9l8 4 5 8v14l-5 10-7 6-5 2-8 1-8-2-6-5-3-6v-13l5-10 7-6z" fill="#0C0102"/>
<path transform="translate(1464,404)" d="m0 0h8l7 3 5 5 2 4v14l-5 10-9 7-3 1h-14l-6-4-4-5-1-3v-13l5-10 7-6z" fill="#0C0102"/>
<path transform="translate(1189,388)" d="m0 0h36l-1 10-26 1-3 13h19l-1 9-1 1h-19l-2 13-1 2h28l-1 9-1 1h-38l1-10 9-47z" fill="#050101"/>
<path transform="translate(1285,404)" d="m0 0 10 1 6 4 4 8v10l-2 3h-28l3 6 5 3 10-2 4-2 4 5-1 4-8 4-10 1-9-3-5-5-3-6v-11l4-10 7-7z" fill="#0E0102"/>
<path transform="translate(939,404)" d="m0 0h10l6 3 4 5 1 8-5 25-1 2h-9v-3l-7 4h-10l-6-5-1-2v-9l5-8 6-3 5-1h13l-2-5-3-1h-7l-5 2-4-1-2-3 1-4z" fill="#0B0102"/>
<path transform="translate(157,302)" d="m0 0h17l11 4 9 7 7 9 3 7 1 5v12l-4 13-8 11-11 7-10 3h-13l-12-4-8-6-7-8-4-8-2-10v-8l4-13 6-8 7-7 10-5zm0 5-9 4-8 6-7 11-2 8v10l3 10 6 8 8 7 11 4h14l11-4 6-5 6-8 4-11v-13l-4-11-9-10-9-5-4-1z" fill="#FEFEFE"/>
<path transform="translate(873,234)" d="m0 0h19l6 3 4 5 1 3v9l-4 9-7 6-10 3h-15l3-22z" fill="#FEFEFE"/>
<path transform="translate(841,397)" d="m0 0h10l5 3 4 5 1 3v12l-5 11-4-1-3-5-5 2-1 3 3 5v2l-2 1h-9l-5-3-4-5-1-3v-12l5-10 8-7z" fill="#FEFEFE"/>
<path transform="translate(1347,405)" d="m0 0 11 1 5 25 6-10 8-15 11-1 1 2-9 16-14 24-7 11-7 7-8 1-7-2 1-5 1-3h9l4-5 2-3-1-9-7-29z" fill="#0D0102"/>
<path transform="translate(1040,405)" d="m0 0h10l2 3 4 21 1 2 12-22 2-3 10-1 1 3-10 18-13 22-7 11-7 6-7 1-7-2 1-6 1-2h9l6-9-2-11-7-30z" fill="#0C0102"/>
<path transform="translate(1410,388)" d="m0 0h48l1 3-2 7h-19l-5 27-4 21-1 1h-11l5-27 4-20 1-2h-19l1-9z" fill="#0C0102"/>
<path transform="translate(1124,405)" d="m0 0h7l2 4 7-4h10l6 4 2 5-1 12-4 20-1 1h-10l4-23v-8l-1-1h-8l-3 1-2 5-4 16-2 9-1 1h-9l1-11 6-30z" fill="#0C0102"/>
<path transform="translate(883,405)" d="m0 0 9 1-1 10-2 10-1 12h8l5-3 3-7 5-22 5-1 5 1-1 8-6 31-2 2h-8v-3l-9 4h-8l-5-3-3-5v-10l5-24z" fill="#0C0102"/>
<path transform="translate(426,240)" d="m0 0 3 2-2 4-22 4-3 3-7 20-2 8 5 5 2 4v7l-4 6-4 3-8 1-6-3-4-5-1-2v-8l7-8 7-2 12-33 9-3z" fill="#FEFEFE"/>
<path transform="translate(1017,392)" d="m0 0h10l-1 10-1 3h9l1 1v6l-1 2h-11l-3 23v2l10-1 3 3v4l-6 3h-12l-5-4-1-2v-11l3-15 1-2h-7l1-7 2-2h6l1-9z" fill="#0C0102"/>
<path transform="translate(1224,405)" d="m0 0h11l3 16 1 12 3-3 13-24 11-1-1 5-10 17-9 15-4 5h-10l-8-37z" fill="#0C0102"/>
<path transform="translate(778,234)" d="m0 0h1l3 52v7h-24l1-6 14-40 4-12z" fill="#FEFEFE"/>
<path transform="translate(296,163)" d="m0 0 5 1 5 3 3 3 10 6-1 2-11-2-3-2-7-1-3 9-5 7 1 9 3 9 1 6-2 5-4 2 1-7-2-4-4-4-9-15 1-5 14-15z" fill="#E60C1A"/>
<path transform="translate(975,388)" d="m0 0h10l-1 10-9 46-1 3h-10l1-9 9-47z" fill="#0B0102"/>
<path transform="translate(1550,388)" d="m0 0h9l1 2-11 55-1 2h-10l2-13 9-45z" fill="#0E0102"/>
<path transform="translate(203,119)" d="m0 0h10l5 3 3 5v10l-6 7-5 2-8-1-6-5-2-4v-7l3-6z" fill="#FEFEFE"/>
<path transform="translate(1318,405)" d="m0 0h7l1 4 8-4h8l-1 9-1 1-9 1-5 5-3 8-4 18h-10l1-8 6-31z" fill="#0D0102"/>
<path transform="translate(357,254)" d="m0 0h10l5 3 3 5v9l-4 6-5 3h-9l-6-4-3-6 1-9 4-5z" fill="#FEFEFE"/>
<path transform="translate(160,179)" d="m0 0h12l12 6 7 10 2 8-1 10-4 8-5 5-5 4-6 2h-12l-8-3-8-7-4-8-1-3v-11l4-9 6-7 8-4zm2 3-9 3-5 4-4 6-1 3v15l5 8 7 6 7 2h7l9-3 7-6 3-6 1-5v-8l-3-8-5-6-8-4-4-1z" fill="#FEFEFE"/>
<path transform="translate(154,155)" d="m0 0h6l5 8 10 1 7-7 6 2 8 5 1 2-1 10 4 6 12 1 4 10 1 5-6 5-3 2-1 8 2 4 5 4-1 6-5 8-1 1h-13l-3 3h-2l-1 13-10 4h-6l-6-9 4 2 3 3h9l3-2 1-10 9-7h11l4-7-1-5-4-5v-12l6-4 1-2v-7l-2-4-11-3-6-6v-12l-3-3-4-2h-5l-5 5h-10l-4-2-4-6h-6l-6 3-1 9-5 6-4 1 6-6 1-12z" fill="#0D0102"/>
<path transform="translate(1465,413)" d="m0 0 7 1 3 3 1 3v8l-3 6-6 5-5 1-6-3-2-4v-9l5-8z" fill="#FEFEFE"/>
<path transform="translate(1514,413)" d="m0 0 6 1 4 5v10l-4 6-5 4-5 1-5-3-3-5v-8l4-7 4-3z" fill="#FEFEFE"/>
<path transform="translate(992,405)" d="m0 0h9l1 3-8 38-1 1h-9l1-11 6-30z" fill="#0F0102"/>
<path transform="translate(1104,405)" d="m0 0h9l-1 10-6 31-1 1h-10l2-12 5-26z" fill="#0C0102"/>
<path transform="translate(202,115)" d="m0 0h11l8 5 2 3-1 11h-1l-2-9-4-4-2-1h-10l-6 4-2 5v7l4 6 7 3 7-1 6-5 2-2 1 3-3 5-10 5-9-1-9-8-1-3v-10l3-6 7-6z" fill="#AD0B13"/>
<path transform="translate(253,255)" d="m0 0h5v4l-5 9v13l2 6 7 5v2l-8-1-8-3-1-32z" fill="#EF0D1C"/>
<path transform="translate(415,264)" d="m0 0h7l5 4 1 2v8l-6 5h-7l-5-4-1-2v-7l5-5z" fill="#FEFEFE"/>
<path transform="translate(358,258)" d="m0 0h7l5 4v9l-4 4-6 1-6-3-1-3v-7z" fill="#A90B12"/>
<path transform="translate(382,285)" d="m0 0h8l5 5v6l-2 4-3 2h-7l-5-5-1-5 3-5z" fill="#A80B12"/>
<path transform="translate(124,175)" d="m0 0 9 1 2 2-10 1-4 6v5l6 6-1 10-4 5-3 3 1 12 12 1 5 6 1 12 4 4 6 2 6-5 2 1-5 6-3 1-12-6-2-3 1-4v-7l-6-5-10-1-3-8-1-8 8-6 1-9-6-7 1-7z" fill="#1B0203"/>
<path transform="translate(937,428)" d="m0 0h11l-1 6-5 5-2 1h-7l-2-2v-6l3-3z" fill="#FEFEFE"/>
<path transform="translate(154,155)" d="m0 0h6l5 8 10 1 7-7 6 2 8 5 1 2-1 5-2-1-2-6-6-3h-5l-5 5h-10l-4-2-4-6h-6l-6 3-1 9-5 6-4 1 6-6 1-12z" fill="#1D0204"/>
<path transform="translate(1284,413)" d="m0 0h7l4 4 1 4-1 1h-18l1-5z" fill="#FEFEFE"/>
<path transform="translate(995,388)" d="m0 0h10v7l-3 5-10-1 2-10z" fill="#110102"/>
<path transform="translate(209,230)" d="m0 0 1 3-3 3h-13l-3 3h-2l-1 13-10 4h-6l-6-9 4 2 3 3h9l3-2 1-10 9-7h11z" fill="#120202"/>
<path transform="translate(1106,388)" d="m0 0h11l-1 8-2 4-10-1z" fill="#0D0102"/>
<path transform="translate(417,267)" d="m0 0 5 1 3 4-1 5-3 3-6-1-3-5 2-5z" fill="#AF0B13"/>
<path transform="translate(118,224)" d="m0 0h2v2l12 1 5 6 1 12 4 4 6 2 6-5 2 1-5 6-3 1-12-6-2-3 1-4v-7l-6-5-10-1z" fill="#190203"/>
<path transform="translate(154,155)" d="m0 0 3 1-11 5-1 9-5 6-4 1 6-6 1-12z" fill="#230304"/>
<path transform="translate(205,212)" d="m0 0 8 8 1 5-3 6-2-1 1-8-5-6z" fill="#1E0204"/>
<path transform="translate(127,282)" d="m0 0 2 1-1 9-4 2-1-1v-8z" fill="#EF0D1C"/>
<path transform="translate(124,175)" d="m0 0 9 1 2 2-10 1-6 8-1-2 5-9z" fill="#1C0203"/>
<path transform="translate(166,247)" d="m0 0 4 2 3 3h10v2l-5 2h-6z" fill="#080101"/>
<path transform="translate(209,230)" d="m0 0 1 3-3 3-13-1 1-2h11z" fill="#0A0102"/>
<path transform="translate(154,246)" d="m0 0 2 1-5 6-3 1-8-4 2-1 6 2z" fill="#2F0305"/>
<path transform="translate(119,186)" d="m0 0 2 4 6 6v5h-2l-3-7-4-4z" fill="#0B0102"/>
<path transform="translate(188,160)" d="m0 0 6 2 3 4-1 5-2-1-2-6-4-2z" fill="#140203"/>
</svg>
