<?xml version="1.0" standalone="no"?>
<!DOCTYPE svg PUBLIC "-//W3C//DTD SVG 20010904//EN"
 "http://www.w3.org/TR/2001/REC-SVG-20010904/DTD/svg10.dtd">
<svg version="1.0" xmlns="http://www.w3.org/2000/svg"
 width="17079.000000pt" height="4544.000000pt" viewBox="0 0 17079.000000 4544.000000"
 preserveAspectRatio="xMidYMid meet">

<g transform="translate(0.000000,4544.000000) scale(0.100000,-0.100000)"
fill="#000000" stroke="none">
<path d="M17113 36339 c-474 -52 -952 -307 -1253 -666 -449 -537 -584 -1222
-370 -1876 315 -956 1322 -1515 2301 -1276 978 238 1612 1181 1463 2174 -64
428 -259 805 -575 1110 -264 255 -579 424 -934 500 -207 44 -427 56 -632 34z
m344 -810 c439 -49 807 -348 947 -769 46 -140 60 -242 53 -403 -6 -174 -37
-292 -116 -452 -149 -298 -403 -505 -726 -590 -123 -33 -311 -44 -435 -26
-423 62 -770 346 -913 748 -42 115 -60 233 -60 378 1 191 33 329 119 500 143
289 401 498 719 583 146 39 261 48 412 31z"/>
<path d="M30481 34960 c-210 -56 -383 -196 -472 -385 -27 -57 -132 -405 -359
-1195 -177 -613 -323 -1116 -325 -1118 -1 -2 -110 -36 -241 -77 -431 -134
-849 -294 -1249 -480 -121 -56 -479 -236 -574 -289 -46 -25 -88 -46 -93 -46
-10 0 -92 44 -478 257 -1051 582 -1563 862 -1609 881 -190 78 -418 65 -616
-36 -65 -33 -150 -115 -1161 -1126 l-1091 -1091 -41 -85 c-59 -122 -75 -194
-76 -330 0 -154 23 -234 118 -410 78 -143 308 -560 951 -1725 l122 -220 -49
-90 c-106 -194 -332 -661 -418 -864 -144 -339 -286 -733 -389 -1076 l-38 -130
-1099 -317 c-605 -174 -1130 -328 -1167 -342 -136 -50 -277 -169 -356 -300
-18 -31 -47 -95 -65 -143 l-31 -88 -3 -1517 c-3 -1645 -5 -1579 51 -1718 79
-193 244 -351 435 -414 42 -14 462 -136 932 -271 1236 -356 1263 -364 1286
-374 14 -6 25 -25 33 -57 23 -91 123 -399 191 -589 166 -464 382 -953 599
-1354 45 -82 81 -155 81 -163 0 -7 -26 -60 -58 -118 -32 -58 -263 -476 -514
-930 -556 -1008 -561 -1017 -589 -1110 -19 -61 -23 -98 -23 -200 0 -113 3
-133 31 -215 63 -183 9 -123 1182 -1295 1047 -1047 1078 -1077 1157 -1118 186
-96 399 -113 586 -46 61 22 596 313 1608 874 543 301 507 282 532 266 43 -27
292 -157 468 -243 468 -229 1022 -445 1534 -599 98 -29 130 -43 137 -59 5 -11
151 -515 325 -1120 231 -805 326 -1121 354 -1180 69 -142 178 -252 325 -325
162 -81 23 -75 1735 -75 1711 0 1572 -6 1735 74 94 46 175 112 244 199 96 120
70 36 587 1837 85 297 160 556 167 575 11 30 19 36 77 54 223 67 716 237 887
305 368 146 773 335 1076 501 l129 70 141 -79 c78 -43 295 -163 482 -266 187
-103 489 -270 670 -370 866 -478 801 -446 948 -471 188 -33 396 20 552 139 33
25 531 517 1106 1094 1018 1021 1047 1050 1086 1128 101 198 118 381 53 580
-21 64 -33 85 -375 705 -206 373 -379 687 -660 1197 l-123 222 74 138 c241
449 450 921 627 1418 70 198 187 567 187 591 0 6 165 59 368 117 202 58 594
172 872 252 278 80 622 179 764 221 286 82 356 111 448 185 117 93 198 212
250 364 l23 70 3 1505 c2 1071 0 1524 -8 1570 -28 159 -94 286 -211 402 -132
130 -133 130 -1154 424 -489 141 -993 286 -1119 323 l-229 66 -13 40 c-7 22
-36 117 -64 210 -98 320 -258 749 -400 1070 -74 166 -274 575 -358 730 l-60
110 97 175 c53 96 160 290 238 430 77 140 286 518 463 840 178 322 333 610
346 641 78 190 68 399 -28 599 l-41 85 -1071 1073 c-719 720 -1091 1086 -1132
1112 -113 74 -265 120 -399 120 -81 0 -202 -24 -275 -55 -31 -13 -355 -189
-721 -391 -1367 -755 -1347 -744 -1359 -744 -6 0 -53 23 -103 51 -164 91 -647
325 -852 412 -336 142 -874 335 -1125 402 -36 10 -68 21 -72 24 -4 4 -154 514
-332 1133 -198 685 -337 1150 -355 1185 -97 193 -268 331 -475 383 -78 20
-111 20 -1590 19 -1459 0 -1514 -1 -1585 -19z m2179 -5865 c856 -84 1608 -300
2350 -676 1359 -687 2443 -1836 3043 -3226 870 -2011 674 -4327 -520 -6153
-1031 -1576 -2680 -2628 -4533 -2894 -351 -50 -498 -60 -920 -61 -388 0 -517
6 -795 41 -463 56 -871 149 -1312 298 -1447 489 -2687 1486 -3485 2801 -451
744 -750 1580 -872 2435 -52 363 -61 496 -61 940 0 445 10 586 60 940 295
2046 1552 3833 3390 4817 806 432 1705 687 2650 753 198 13 811 5 1005 -15z"/>
<path d="M31830 28257 c-3 -2 -65 -7 -138 -11 -469 -23 -1061 -146 -1542 -321
-1807 -654 -3164 -2181 -3595 -4045 -99 -429 -142 -813 -143 -1270 0 -323 13
-519 54 -810 257 -1817 1392 -3405 3029 -4240 647 -330 1302 -521 2044 -596
180 -18 702 -26 891 -13 1391 93 2674 676 3650 1658 624 627 1077 1362 1355
2196 156 466 235 862 280 1385 11 127 14 607 5 745 -50 765 -242 1494 -570
2160 -669 1357 -1857 2396 -3287 2874 -452 151 -957 250 -1428 279 -142 9
-598 16 -605 9z m3895 -3098 l0 -224 -205 -38 c-113 -20 -412 -75 -665 -122
-253 -46 -570 -104 -705 -129 -135 -25 -312 -58 -395 -72 -82 -15 -153 -29
-157 -33 -6 -5 -612 -1723 -872 -2469 l-35 -102 67 -34 c144 -72 309 -219 402
-356 222 -327 260 -740 102 -1100 -57 -129 -123 -222 -236 -336 -158 -157
-316 -247 -528 -301 -90 -23 -124 -26 -268 -27 -141 0 -178 3 -255 23 -346 89
-614 305 -760 612 -205 436 -123 933 210 1274 209 213 459 324 767 342 l108 6
19 51 c10 28 247 681 526 1451 279 770 510 1403 514 1406 3 4 249 48 546 98
637 107 1134 192 1520 260 154 27 285 48 290 47 6 -2 10 -86 10 -227z m-5360
-899 c264 -43 537 -209 699 -425 307 -407 310 -955 9 -1360 -375 -504 -1091
-603 -1593 -219 -66 50 -182 170 -232 239 -50 70 -122 214 -153 310 -221 679
247 1391 965 1468 60 7 232 -1 305 -13z m4762 -900 c295 -83 502 -297 578
-597 21 -82 24 -253 6 -338 -55 -259 -240 -486 -474 -584 -213 -88 -482 -80
-680 20 -169 86 -318 251 -385 427 -43 111 -56 183 -56 302 2 393 289 725 682
790 80 12 250 3 329 -20z"/>
<path d="M32101 21649 c-331 -65 -569 -336 -588 -669 -11 -182 51 -368 171
-511 74 -90 202 -176 321 -215 83 -27 101 -29 230 -29 124 1 149 4 220 28 113
38 198 91 285 177 86 87 139 172 177 285 24 71 27 96 28 220 0 129 -2 147 -29
230 -61 186 -191 333 -371 420 -138 67 -306 91 -444 64z"/>
<path d="M30015 23866 c-272 -63 -488 -270 -555 -532 -27 -105 -27 -263 0
-368 38 -150 139 -306 253 -392 142 -107 283 -154 457 -154 211 0 365 64 515
215 73 72 99 107 133 175 64 129 86 229 79 370 -9 202 -70 343 -212 485 -144
144 -285 205 -490 211 -79 2 -140 -1 -180 -10z"/>
<path d="M34830 23090 c-245 -45 -420 -250 -423 -495 -2 -155 51 -284 160
-385 105 -99 209 -140 353 -140 144 0 248 41 353 140 183 171 214 451 72 664
-86 130 -230 210 -394 220 -42 3 -96 1 -121 -4z"/>
<path d="M12575 32339 c-346 -106 -502 -158 -530 -177 -22 -15 -53 -50 -70
-77 l-30 -49 0 -433 0 -434 -120 -85 c-151 -108 -222 -166 -379 -309 l-124
-115 -354 76 c-486 104 -462 100 -528 81 -72 -21 -120 -63 -163 -140 -56 -100
-334 -620 -410 -767 l-69 -134 4 -67 c6 -84 33 -133 119 -214 35 -33 166 -159
291 -280 l226 -221 -9 -44 c-41 -216 -69 -475 -69 -655 l0 -100 -345 -224
c-189 -123 -353 -234 -364 -245 -34 -37 -61 -108 -61 -165 0 -42 34 -167 146
-535 80 -265 153 -496 161 -514 22 -47 95 -107 148 -122 35 -10 140 -12 454
-8 l408 6 71 -103 c98 -142 210 -279 335 -411 l105 -110 -54 -250 c-129 -603
-124 -572 -102 -647 24 -79 83 -125 333 -258 127 -67 298 -158 380 -202 322
-171 313 -167 368 -167 69 0 116 14 159 47 19 16 157 154 307 309 l272 281 92
-18 c153 -30 352 -51 537 -58 l174 -6 216 -333 c119 -183 230 -346 246 -364
40 -42 105 -70 167 -70 39 0 172 36 533 145 265 81 492 151 506 156 39 15 97
70 121 115 22 41 22 45 19 471 l-3 430 123 87 c141 99 288 220 414 341 l87 83
386 -83 c212 -45 406 -83 430 -83 67 0 119 20 167 64 35 32 74 97 180 296 75
140 186 350 247 465 l112 210 -1 70 c0 50 -6 81 -21 110 -13 24 -141 157 -318
329 -241 235 -295 293 -291 310 12 49 45 257 51 321 4 39 8 80 10 93 2 13 7
98 10 190 6 155 8 168 28 186 12 10 163 110 335 221 172 111 325 213 339 226
39 36 73 116 73 172 0 71 -291 1025 -330 1082 -16 24 -50 53 -82 70 l-53 30
-432 -4 c-271 -2 -433 0 -433 6 0 13 -118 178 -209 293 -42 52 -124 145 -183
206 l-108 111 35 164 c19 90 57 270 85 399 35 162 50 250 47 282 -5 61 -43
133 -87 168 -51 41 -910 497 -961 510 -50 14 -115 7 -162 -15 -17 -9 -165
-151 -327 -317 l-296 -300 -79 16 c-183 37 -438 62 -656 65 l-66 1 -98 153
c-250 388 -357 544 -385 565 -44 33 -105 52 -159 51 -28 -1 -232 -58 -536
-150z m1565 -1854 c637 -96 1195 -449 1553 -983 32 -48 89 -147 126 -222 167
-329 243 -646 244 -1010 1 -270 -30 -460 -114 -714 -222 -671 -747 -1197
-1417 -1420 -702 -233 -1460 -111 -2053 330 -482 359 -805 914 -884 1517 -31
243 -15 553 42 792 194 817 821 1456 1629 1661 120 30 276 57 394 68 88 8 377
-3 480 -19z"/>
<path d="M13543 30190 c-367 -56 -692 -201 -968 -432 -619 -517 -856 -1364
-595 -2123 104 -301 255 -539 482 -761 269 -263 580 -433 946 -513 274 -61
581 -58 864 8 691 162 1254 710 1431 1396 51 196 61 277 61 490 0 346 -63 612
-216 905 -108 207 -201 332 -374 501 -275 267 -601 437 -987 515 -178 36 -460
42 -644 14z"/>
<path d="M119705 28129 c-617 -47 -1202 -206 -1710 -464 -266 -135 -476 -267
-755 -476 -565 -424 -1061 -963 -1461 -1589 -342 -537 -633 -1161 -833 -1790
-387 -1219 -546 -2616 -430 -3780 83 -838 313 -1617 656 -2224 76 -135 244
-385 350 -521 111 -143 394 -430 533 -541 627 -500 1303 -757 2169 -824 166
-13 589 -13 776 0 1079 75 1929 422 2785 1136 151 126 482 453 612 604 515
600 955 1373 1259 2212 246 682 433 1521 513 2308 41 402 46 506 46 1030 -1
538 -7 666 -55 1033 -139 1071 -494 1962 -1045 2624 -232 279 -545 547 -860
738 -148 90 -443 233 -591 289 -325 120 -679 196 -1081 231 -183 16 -687 18
-878 4z m445 -2160 c525 -60 935 -303 1213 -717 74 -110 185 -336 232 -472
151 -436 214 -1005 194 -1751 -46 -1705 -481 -3205 -1185 -4084 -110 -137
-299 -332 -424 -437 -367 -308 -783 -458 -1274 -458 -424 0 -787 90 -1066 265
-418 261 -715 791 -844 1510 -89 490 -97 1126 -25 1864 140 1445 540 2626
1144 3385 108 135 300 333 425 439 445 374 985 527 1610 456z"/>
<path d="M130405 28133 c-855 -54 -1620 -314 -2298 -779 -1044 -717 -1820
-1723 -2342 -3038 -351 -885 -578 -1967 -636 -3036 -13 -240 -7 -926 10 -1105
79 -829 236 -1460 507 -2046 391 -843 965 -1443 1749 -1829 399 -196 803 -310
1297 -366 195 -21 698 -30 924 -15 1096 72 1971 428 2819 1148 748 634 1343
1500 1774 2580 303 762 526 1726 610 2648 34 367 44 642 38 1050 -10 691 -81
1228 -238 1801 -94 344 -193 604 -349 919 -216 435 -439 746 -761 1060 -165
160 -282 257 -459 378 -548 373 -1138 569 -1879 627 -121 9 -638 11 -766 3z
m375 -2164 c524 -54 943 -301 1222 -719 218 -328 340 -726 405 -1325 25 -238
25 -1057 0 -1375 -65 -804 -192 -1476 -394 -2095 -255 -779 -593 -1368 -1030
-1796 -140 -138 -222 -206 -352 -291 -329 -217 -673 -318 -1085 -318 -795 0
-1317 293 -1635 918 -276 545 -383 1221 -341 2162 55 1227 299 2323 706 3168
217 451 444 775 760 1082 300 291 578 454 924 540 267 66 511 81 820 49z"/>
<path d="M147695 28134 c-880 -71 -1603 -307 -2220 -725 -638 -432 -1098
-1035 -1351 -1774 -196 -570 -271 -1335 -188 -1905 50 -342 165 -648 364 -965
120 -192 229 -334 425 -554 52 -58 303 -289 426 -391 197 -165 347 -273 733
-531 426 -283 755 -516 912 -644 138 -112 390 -364 475 -475 163 -210 235
-387 261 -637 21 -206 -19 -470 -97 -640 -160 -346 -497 -595 -955 -706 -226
-55 -301 -62 -640 -61 -334 0 -468 10 -790 60 -589 90 -1287 311 -1737 549
l-82 43 -10 -31 c-26 -83 -581 -2106 -581 -2119 0 -31 304 -193 540 -286 587
-234 1280 -379 2015 -422 219 -13 691 -13 865 0 802 59 1527 266 2116 606 436
251 852 629 1140 1034 204 289 378 625 484 940 145 429 210 859 210 1394 0
656 -109 1086 -396 1566 -206 344 -443 626 -764 906 -233 202 -419 337 -724
523 -585 358 -977 623 -1196 810 -357 305 -507 513 -572 793 -30 131 -30 382
0 515 107 471 522 784 1163 877 335 49 805 38 1204 -30 362 -61 911 -227 1283
-388 58 -25 84 -32 87 -23 7 18 575 2137 575 2143 0 8 -209 106 -330 154 -486
195 -1007 319 -1585 376 -152 15 -931 28 -1060 18z"/>
<path d="M73160 28017 c-3 -2 -98 -7 -211 -11 -113 -4 -230 -9 -260 -11 -30
-3 -135 -9 -234 -15 -156 -10 -292 -20 -585 -45 -36 -4 -110 -11 -165 -16 -55
-6 -120 -12 -145 -14 -289 -28 -753 -85 -762 -94 -3 -3 -29 -154 -57 -336 -29
-181 -65 -413 -81 -515 -32 -203 -340 -2169 -370 -2370 -11 -69 -35 -224 -54
-345 -19 -121 -56 -353 -81 -515 -62 -401 -72 -463 -250 -1600 -86 -547 -162
-1038 -170 -1090 -8 -52 -30 -196 -50 -320 -19 -124 -116 -745 -216 -1380 -99
-635 -211 -1353 -249 -1596 -38 -242 -74 -469 -79 -505 -12 -81 -169 -1083
-176 -1127 l-6 -32 1163 2 1162 3 22 145 c26 169 149 957 164 1045 16 97 50
313 220 1395 88 564 172 1097 186 1185 14 88 34 216 45 285 11 69 26 166 34
215 8 50 24 151 35 225 11 74 22 145 25 158 l5 22 515 0 514 0 20 -67 c11 -38
90 -313 175 -613 738 -2597 1136 -3994 1139 -3997 2 -1 571 -2 1263 -1 l1260
3 -863 2630 c-474 1447 -862 2635 -863 2641 0 6 69 35 153 64 502 173 903 425
1292 815 601 600 974 1382 1085 2275 18 152 25 301 24 540 -6 883 -255 1551
-765 2046 -486 471 -1139 741 -2084 863 -366 47 -486 53 -1115 58 -333 2 -607
2 -610 0z m1020 -2111 c241 -36 373 -76 542 -163 328 -170 518 -450 568 -838
13 -101 13 -436 0 -546 -21 -174 -61 -339 -112 -469 -232 -588 -719 -989
-1378 -1134 -235 -51 -284 -54 -902 -55 -340 -1 -578 2 -578 8 0 5 27 184 59
397 33 214 67 439 76 499 16 106 22 146 44 285 5 36 21 139 35 230 144 954
267 1754 270 1757 2 2 473 41 566 47 163 9 708 -3 810 -18z"/>
<path d="M63745 27958 c-7 -18 -56 -136 -108 -263 -52 -126 -251 -608 -442
-1070 -191 -462 -416 -1006 -500 -1210 -393 -952 -802 -1943 -855 -2070 -72
-174 -245 -591 -490 -1185 -389 -943 -901 -2183 -1035 -2505 -46 -110 -130
-315 -188 -455 -58 -140 -187 -453 -287 -695 -179 -431 -612 -1480 -795 -1925
-51 -124 -118 -286 -149 -359 -31 -74 -56 -136 -56 -138 0 -2 561 -2 1247 -1
l1248 3 545 1420 546 1420 1471 3 1472 2 5 -42 c4 -24 13 -137 21 -253 9 -115
18 -235 20 -265 3 -30 12 -147 20 -260 9 -113 18 -227 20 -255 3 -27 12 -144
20 -260 9 -115 18 -235 20 -265 3 -30 12 -145 20 -255 8 -110 17 -227 20 -260
10 -116 55 -706 55 -720 0 -13 159 -15 1240 -15 682 0 1240 3 1240 8 0 4 -29
273 -65 597 -35 325 -78 716 -95 870 -17 154 -33 298 -35 320 -3 22 -23 207
-45 410 -22 204 -42 388 -45 410 -3 22 -27 249 -55 505 -27 256 -52 483 -55
505 -8 65 -13 114 -50 455 -20 179 -38 343 -40 365 -3 22 -28 249 -55 505 -28
256 -52 483 -55 505 -3 22 -14 126 -25 230 -12 105 -23 208 -26 230 -2 22 -20
186 -39 365 -20 179 -47 426 -60 550 -14 124 -28 250 -31 280 -6 59 -22 203
-29 260 -2 19 -11 100 -20 180 -43 411 -156 1440 -160 1470 -2 19 -7 58 -10
85 -3 28 -16 154 -30 280 -13 127 -27 253 -30 280 -12 105 -96 874 -105 965
-6 52 -12 113 -15 135 -6 50 -35 315 -80 735 -19 179 -38 344 -41 368 l-5 42
-1505 0 -1505 0 -14 -32z m1193 -2040 c3 -77 30 -583 37 -693 3 -44 9 -165 15
-270 5 -104 12 -228 15 -275 2 -47 7 -130 10 -185 11 -195 55 -921 60 -980 2
-33 7 -114 10 -180 3 -66 8 -140 10 -165 3 -25 7 -90 10 -145 8 -139 20 -335
30 -490 3 -38 14 -225 25 -415 11 -190 22 -370 25 -400 2 -30 7 -98 10 -150 3
-52 8 -133 10 -180 3 -47 8 -121 10 -165 3 -44 8 -119 11 -167 l6 -88 -1041 0
-1040 0 48 138 c27 75 92 256 144 402 779 2174 1056 2960 1287 3653 289 863
302 895 308 755z"/>
<path d="M49187 27888 c-9 -46 -30 -155 -46 -243 -17 -88 -60 -313 -95 -500
-36 -187 -79 -412 -95 -500 -16 -88 -50 -266 -75 -395 -25 -129 -75 -392 -111
-585 -37 -192 -84 -442 -105 -555 -22 -113 -57 -302 -80 -420 -22 -118 -58
-307 -80 -420 -22 -113 -62 -324 -89 -470 -28 -146 -77 -407 -110 -580 -33
-173 -64 -340 -70 -370 -5 -30 -39 -208 -75 -395 -35 -187 -92 -486 -126 -665
-33 -179 -65 -345 -70 -370 -6 -25 -62 -319 -125 -655 -136 -719 -202 -1065
-255 -1345 -35 -182 -164 -863 -204 -1075 -8 -44 -51 -271 -96 -505 -44 -234
-94 -495 -110 -580 -16 -85 -47 -249 -69 -365 -52 -271 -141 -741 -148 -782
l-6 -33 1106 0 1105 0 6 28 c3 15 26 137 51 272 24 135 74 405 110 600 36 195
90 488 120 650 30 162 104 563 164 890 253 1365 405 2192 456 2470 30 162 65
356 79 430 41 221 50 280 141 905 8 55 24 161 35 235 11 74 25 164 30 200 15
101 117 789 190 1280 17 113 48 324 70 470 21 146 49 334 62 418 15 101 26
152 34 152 14 0 20 -36 29 -170 3 -47 8 -110 11 -140 2 -30 11 -149 19 -265 8
-115 17 -235 20 -265 2 -30 7 -86 10 -125 3 -38 16 -223 30 -410 14 -187 28
-367 30 -400 3 -33 30 -395 60 -805 31 -410 58 -770 60 -800 3 -30 19 -242 35
-470 17 -228 33 -440 35 -470 3 -30 14 -179 25 -330 11 -151 22 -300 25 -330
4 -56 7 -84 25 -335 6 -77 13 -165 15 -195 3 -30 10 -122 15 -205 6 -82 20
-267 30 -410 11 -143 22 -294 25 -335 3 -41 8 -100 10 -130 3 -30 7 -84 10
-120 2 -36 7 -101 10 -145 3 -44 8 -100 10 -125 2 -25 7 -83 10 -130 3 -47 8
-105 10 -130 2 -25 7 -88 10 -140 3 -52 8 -115 10 -140 2 -25 7 -81 10 -125 6
-82 42 -573 50 -680 3 -33 9 -123 15 -200 6 -77 12 -162 15 -190 4 -44 18
-244 19 -270 1 -7 327 -11 951 -13 l950 -2 177 427 c162 393 385 932 1153
2788 152 369 431 1044 620 1500 189 457 513 1240 720 1740 207 501 530 1282
718 1737 311 753 344 828 365 828 18 0 21 -4 17 -22 -7 -35 -56 -298 -140
-758 -42 -228 -121 -658 -175 -955 -55 -297 -144 -785 -199 -1085 -55 -300
-107 -581 -116 -625 -8 -44 -36 -231 -60 -415 -49 -358 -127 -914 -199 -1410
-118 -809 -235 -1643 -381 -2730 -8 -58 -39 -274 -69 -480 -31 -206 -58 -412
-62 -457 l-7 -83 1147 0 c630 0 1146 4 1146 8 0 6 76 627 104 852 3 19 48 388
101 820 52 432 111 911 130 1065 19 154 44 357 55 450 24 195 22 176 55 440
23 188 134 1093 175 1435 19 152 225 1837 235 1915 3 22 7 58 10 80 5 38 74
603 116 945 38 314 89 736 109 895 11 88 22 178 25 200 2 22 23 186 44 365 22
179 63 510 91 735 27 226 52 428 55 450 2 22 21 171 40 330 57 464 85 693 99
803 l13 102 -1531 -2 -1531 -3 -191 -475 c-105 -261 -352 -875 -548 -1365
-197 -489 -422 -1050 -501 -1245 -293 -728 -968 -2409 -1123 -2795 -88 -220
-346 -912 -573 -1538 l-414 -1138 -30 3 -30 3 -6 120 c-4 66 -9 172 -13 235
-11 195 -16 288 -26 495 -6 110 -12 234 -15 275 -2 41 -7 122 -10 180 -3 58
-7 148 -10 200 -6 99 -11 199 -20 385 -3 61 -8 137 -10 170 -3 33 -7 114 -10
180 -5 100 -31 420 -50 620 -3 28 -9 104 -15 170 -6 66 -12 143 -15 170 -3 28
-16 183 -30 345 -14 162 -27 311 -30 330 -2 19 -7 71 -10 115 -3 44 -10 123
-15 175 -5 52 -12 124 -15 160 -11 137 -46 530 -55 625 -5 55 -14 159 -20 230
-6 72 -13 150 -15 175 -3 25 -19 200 -35 390 -17 190 -32 365 -35 390 -3 25
-9 104 -15 175 -6 72 -15 177 -20 235 -15 154 -17 182 -50 560 -17 190 -32
368 -35 395 -10 108 -25 273 -30 340 -3 39 -8 90 -10 115 -8 72 -14 143 -30
335 -8 99 -17 199 -21 223 l-5 42 -1528 0 -1528 0 -16 -82z"/>
<path d="M79770 27967 c0 -6 -145 -946 -199 -1292 -16 -104 -37 -239 -46 -300
-23 -154 -27 -179 -84 -547 -28 -180 -55 -356 -60 -390 -11 -77 -219 -1419
-266 -1723 -19 -121 -40 -254 -46 -295 -6 -41 -14 -100 -19 -130 -13 -83 -47
-304 -69 -448 -25 -161 -63 -406 -145 -938 -36 -232 -71 -454 -77 -495 -6 -41
-14 -99 -19 -129 -5 -30 -18 -118 -30 -195 -12 -77 -26 -165 -30 -195 -5 -30
-18 -113 -29 -185 -69 -452 -233 -1516 -246 -1595 -23 -147 -104 -670 -126
-820 -11 -74 -24 -160 -29 -190 -108 -695 -310 -2005 -310 -2011 0 -5 520 -9
1159 -9 l1159 0 6 28 c3 15 17 101 31 192 42 281 74 491 89 590 29 186 166
1079 206 1345 22 149 49 324 60 390 10 66 49 316 85 555 62 411 80 530 125
815 10 66 26 172 35 235 9 63 20 125 25 136 7 19 915 739 945 750 6 2 370
-1070 854 -2516 l844 -2520 1338 0 c737 0 1339 4 1339 8 0 5 -89 245 -199 533
-109 288 -269 711 -356 939 -86 228 -318 840 -515 1360 -197 520 -454 1197
-570 1505 -117 308 -347 915 -511 1349 -165 433 -299 792 -299 796 0 5 260
345 578 757 318 411 1129 1461 1802 2333 673 872 1276 1653 1340 1735 99 128
405 525 433 563 8 9 -279 12 -1426 12 l-1435 0 -74 -117 c-41 -65 -192 -302
-335 -528 -143 -225 -452 -714 -688 -1085 -741 -1169 -931 -1469 -1501 -2367
l-319 -501 -455 -420 c-250 -231 -456 -419 -458 -418 -2 3 8 73 43 296 9 58
25 159 35 225 10 66 39 251 64 410 92 592 157 1013 171 1100 7 50 29 191 49
315 19 124 40 254 45 290 5 36 35 227 66 425 92 594 144 924 191 1230 132 858
155 1005 164 1054 5 30 10 63 10 73 0 17 -42 18 -1160 18 -638 0 -1160 -2
-1160 -3z"/>
<path d="M88886 27943 c-5 -24 -209 -1345 -235 -1523 -11 -73 -25 -163 -110
-715 -33 -214 -87 -565 -120 -780 -65 -422 -73 -471 -96 -615 -8 -52 -24 -155
-35 -228 -32 -214 -53 -353 -155 -1007 -53 -341 -105 -678 -115 -750 -11 -71
-33 -218 -50 -325 -17 -107 -48 -310 -70 -450 -21 -140 -118 -767 -214 -1392
-97 -626 -180 -1166 -185 -1200 -14 -94 -189 -1229 -206 -1333 -8 -49 -24
-148 -34 -220 -11 -71 -60 -394 -110 -717 -50 -323 -91 -592 -91 -598 0 -7
1037 -10 3274 -10 l3275 0 10 53 c136 660 426 2139 421 2142 -5 3 -974 4
-2155 2 l-2147 -2 6 35 c3 19 22 141 41 270 20 129 51 336 70 460 19 124 39
254 44 290 5 36 21 139 35 230 13 91 70 466 126 835 56 368 102 671 104 672 2
2 816 3 1809 3 l1807 0 5 22 c10 41 465 2168 465 2173 0 3 -846 5 -1880 5
l-1880 0 5 23 c5 21 26 148 160 972 159 975 236 1443 241 1468 l6 27 1988 0
1988 0 5 23 c4 12 47 216 97 452 49 237 94 448 100 470 5 22 66 308 135 635
69 327 128 603 131 613 5 16 -153 17 -3225 17 l-3229 0 -6 -27z"/>
<path d="M96360 27962 c0 -5 -63 -301 -141 -658 -77 -357 -155 -721 -174 -809
-19 -88 -64 -295 -100 -460 -36 -165 -65 -303 -65 -307 0 -5 594 -8 1320 -8
1271 0 1320 -1 1320 -18 0 -10 -24 -178 -54 -373 -30 -195 -80 -520 -111 -724
-31 -203 -71 -469 -90 -590 -19 -121 -48 -312 -65 -425 -16 -113 -35 -232 -40
-265 -12 -74 -41 -266 -75 -490 -28 -189 -40 -265 -55 -357 -6 -35 -19 -121
-30 -193 -28 -193 -158 -1046 -175 -1150 -8 -49 -26 -164 -39 -255 -14 -91
-56 -372 -95 -625 -169 -1105 -303 -1985 -331 -2170 -17 -110 -37 -240 -45
-290 -8 -49 -28 -180 -44 -290 -31 -206 -112 -740 -130 -855 -30 -192 -53
-338 -70 -447 l-18 -123 1168 0 1167 0 6 28 c6 26 136 863 155 992 12 83 72
470 116 755 32 204 292 1883 335 2165 10 69 62 404 115 745 84 544 110 715
145 945 5 30 31 202 59 382 28 180 55 356 60 390 13 90 149 965 166 1073 8 50
24 149 34 220 11 72 40 261 65 420 24 160 85 556 135 880 50 325 94 602 97
617 l6 28 1276 2 1276 3 33 160 c19 88 54 255 78 370 114 547 241 1154 315
1508 22 103 40 192 40 197 0 6 -1394 10 -3770 10 -2073 0 -3770 -4 -3770 -8z"/>
<path d="M107266 26862 c-132 -609 -241 -1115 -244 -1124 -4 -17 65 -18 1320
-20 l1324 -3 -727 -4765 c-401 -2621 -731 -4789 -735 -4818 l-6 -52 1165 0
1166 0 6 33 c3 17 336 2176 740 4797 404 2621 737 4775 740 4788 l5 22 1275 0
c1204 0 1274 1 1279 18 6 19 466 2218 466 2227 0 3 -1695 5 -3767 5 l-3768 0
-239 -1108z"/>
<path d="M137102 27763 c-96 -624 -743 -4823 -1231 -7993 -308 -1999 -563
-3647 -565 -3662 l-5 -28 3203 0 3204 0 12 53 c6 28 110 525 231 1102 121 578
222 1060 226 1073 l5 22 -2091 0 c-1363 0 -2091 3 -2091 10 0 11 14 105 865
5675 327 2145 598 3912 601 3928 l6 27 -1169 0 -1169 0 -32 -207z"/>
<path d="M14323 23201 c-73 -27 -137 -75 -177 -135 -19 -28 -157 -271 -306
-541 -149 -269 -274 -493 -278 -496 -4 -4 -70 -12 -147 -18 -288 -24 -621 -81
-895 -154 l-125 -33 -130 117 c-527 473 -757 675 -799 699 -96 56 -237 60
-333 11 -21 -10 -258 -157 -528 -326 -269 -169 -547 -344 -617 -387 -136 -85
-198 -139 -229 -200 -30 -59 -52 -157 -45 -204 3 -23 78 -295 166 -603 88
-308 160 -569 160 -579 0 -11 -10 -27 -21 -38 -31 -28 -184 -214 -272 -331
-94 -124 -252 -365 -327 -496 -42 -74 -61 -97 -80 -101 -14 -3 -86 -8 -160
-11 -74 -3 -243 -13 -375 -20 -132 -8 -301 -17 -375 -21 -291 -13 -364 -31
-452 -113 -80 -73 -88 -98 -208 -622 -61 -266 -136 -592 -167 -724 -66 -279
-71 -351 -33 -450 40 -102 99 -150 370 -299 214 -118 791 -437 798 -441 1 -1
9 -80 18 -176 25 -294 84 -627 154 -880 l31 -111 -33 -37 c-18 -20 -195 -217
-393 -439 -411 -459 -428 -482 -434 -614 -2 -55 2 -94 14 -130 9 -29 163 -284
363 -602 190 -303 366 -585 391 -626 101 -165 203 -233 351 -232 67 0 138 18
644 165 l570 164 110 -94 c217 -186 470 -366 706 -505 63 -37 123 -73 132 -80
14 -11 18 -48 28 -228 6 -118 13 -237 15 -265 2 -27 7 -99 10 -160 14 -293 26
-494 31 -535 19 -142 126 -266 264 -304 30 -9 235 -56 455 -106 1138 -259
1031 -238 1107 -220 29 7 73 23 98 36 93 47 122 90 420 629 155 281 286 514
290 519 5 5 55 13 112 17 322 25 679 85 945 160 87 24 108 27 121 17 9 -7 211
-187 449 -400 312 -279 449 -394 490 -414 76 -38 194 -45 273 -16 77 27 1292
791 1352 849 70 69 103 148 103 248 -1 73 -14 128 -164 649 -102 355 -160 574
-155 582 5 6 45 53 89 104 172 199 404 527 532 753 l55 97 47 1 c25 0 60 2 76
4 17 2 89 6 160 9 72 4 166 9 210 11 79 5 340 20 545 31 58 3 130 10 160 15
116 20 217 97 265 202 13 29 76 282 140 562 64 281 139 607 166 725 58 248 61
316 15 415 -48 106 -77 126 -636 434 -283 156 -518 286 -522 290 -3 3 -12 69
-18 146 -23 290 -84 641 -158 916 l-29 106 384 429 c212 236 400 452 418 479
65 95 79 223 38 329 -9 23 -116 199 -236 391 -121 193 -279 445 -352 560 -72
116 -157 249 -188 297 -89 138 -182 193 -327 192 -67 0 -137 -17 -643 -163
l-568 -163 -42 36 c-281 240 -522 414 -794 575 -67 39 -124 79 -127 89 -2 9
-7 82 -10 162 -4 80 -9 172 -11 205 -3 33 -7 105 -10 160 -3 55 -8 136 -10
180 -3 44 -10 168 -15 275 -13 240 -28 294 -102 375 -28 31 -69 67 -92 80 -46
27 -31 23 -893 220 -673 154 -706 160 -800 126z m-257 -2961 c820 -66 1553
-409 2119 -991 506 -521 809 -1149 912 -1889 25 -178 24 -644 0 -819 -60 -417
-171 -771 -351 -1116 -464 -890 -1321 -1525 -2311 -1715 -680 -130 -1399 -36
-2031 265 -329 156 -611 353 -873 609 -390 382 -655 798 -827 1298 -122 357
-176 684 -176 1073 1 515 110 985 337 1450 391 800 1095 1409 1948 1684 406
131 841 184 1253 151z"/>
<path d="M13565 19804 c-947 -98 -1759 -621 -2228 -1436 -200 -347 -325 -747
-366 -1178 -21 -212 -1 -563 45 -795 168 -859 743 -1613 1524 -2001 390 -193
769 -288 1205 -301 296 -9 554 22 834 99 813 222 1506 812 1849 1573 103 229
191 528 227 772 22 148 37 407 30 508 -3 50 -8 122 -11 160 -8 118 -43 312
-84 472 -126 490 -382 935 -745 1298 -434 433 -972 705 -1593 806 -99 16 -184
21 -387 24 -143 1 -278 1 -300 -1z"/>
<path d="M70465 13123 c-517 -39 -926 -178 -1337 -455 -713 -478 -1169 -1278
-1273 -2228 -22 -198 -14 -616 13 -767 82 -446 252 -781 552 -1084 178 -179
343 -298 564 -405 210 -102 475 -178 691 -199 39 -4 81 -9 95 -11 53 -9 410
-5 510 6 231 25 480 86 693 171 55 21 101 38 103 37 1 -2 91 -150 198 -330
l197 -326 297 170 c163 94 299 172 301 174 4 4 -52 98 -279 472 l-124 204 90
81 c571 521 905 1192 1005 2027 14 117 18 492 7 615 -54 574 -306 1046 -746
1397 -295 235 -630 376 -1032 434 -95 14 -426 25 -525 17z m416 -857 c357 -77
612 -281 787 -631 114 -228 164 -485 157 -810 -8 -430 -109 -783 -321 -1125
-81 -131 -271 -370 -294 -370 -4 0 -99 153 -211 340 -112 187 -208 340 -213
340 -5 0 -39 -17 -75 -38 -36 -21 -127 -74 -201 -117 -74 -43 -176 -102 -227
-131 l-91 -54 209 -354 c115 -195 212 -361 215 -369 8 -21 -150 -71 -310 -99
-104 -17 -147 -20 -301 -15 -196 7 -274 19 -416 67 -408 137 -693 500 -784
1000 -26 146 -29 449 -5 621 37 271 98 476 210 704 122 250 271 457 459 637
267 256 591 400 958 426 132 9 361 -2 454 -22z"/>
<path d="M81342 12992 c-6 -5 -32 -113 -57 -243 -25 -129 -72 -371 -105 -539
-32 -168 -68 -354 -80 -415 -33 -172 -68 -352 -235 -1215 -86 -443 -194 -1001
-240 -1240 -46 -239 -118 -611 -159 -826 -42 -214 -76 -396 -76 -402 0 -9 102
-12 415 -12 228 0 415 2 415 4 0 3 70 366 155 808 86 442 174 898 196 1013 22
116 60 311 84 435 25 124 70 356 100 515 31 160 132 684 225 1165 93 481 172
894 176 916 l6 42 -403 1 c-222 1 -410 -2 -417 -7z"/>
<path d="M82956 12992 c-2 -4 -28 -127 -56 -272 -28 -146 -67 -344 -86 -440
-19 -96 -34 -178 -34 -182 0 -4 200 -8 445 -8 245 0 445 2 445 4 0 2 9 48 19
102 108 547 151 779 147 790 -4 11 -88 13 -440 14 -239 0 -437 -3 -440 -8z"/>
<path d="M92274 12992 c-6 -4 -20 -56 -32 -117 -115 -595 -144 -743 -149 -762
l-5 -23 446 0 446 0 5 23 c3 12 32 159 65 327 112 577 106 540 90 550 -18 11
-850 13 -866 2z"/>
<path d="M99155 12988 c-3 -12 -200 -1026 -265 -1373 -16 -82 -99 -512 -185
-955 -85 -443 -178 -922 -206 -1065 -27 -143 -65 -339 -84 -435 -19 -96 -70
-364 -115 -595 -44 -231 -83 -430 -85 -442 l-5 -23 1604 0 1604 0 11 48 c11
49 151 759 151 767 0 3 -523 5 -1161 5 l-1162 0 6 38 c3 20 53 282 111 582 59
300 111 573 117 608 l11 62 799 0 c446 0 799 4 799 9 0 4 34 185 75 400 41
216 75 394 75 397 0 2 -358 4 -795 4 -437 0 -795 2 -795 5 0 2 26 138 59 302
32 164 83 423 112 576 l54 277 1067 1 c588 1 1073 2 1080 3 11 1 166 736 167
794 l1 22 -1520 0 c-1208 0 -1521 -3 -1525 -12z"/>
<path d="M117565 12977 c-16 -71 -155 -762 -155 -774 0 -11 135 -13 795 -13
659 0 795 -2 795 -13 0 -12 -714 -3711 -769 -3984 l-18 -93 447 0 447 0 11 63
c6 34 40 215 77 402 153 788 196 1014 245 1265 28 146 69 355 90 465 22 110
64 328 94 485 99 509 166 860 220 1135 l52 270 797 3 c438 1 797 3 797 5 0 2
36 180 80 397 44 217 80 398 80 402 0 4 -918 8 -2040 8 l-2040 0 -5 -23z"/>
<path d="M129220 12994 c0 -3 -40 -214 -89 -468 -50 -253 -99 -510 -111 -571
-38 -199 -77 -400 -234 -1210 -409 -2112 -506 -2616 -506 -2630 0 -13 50 -15
414 -15 l414 0 10 58 c6 31 83 431 172 887 88 457 179 925 201 1040 22 116 60
311 84 435 41 207 122 627 180 930 13 69 85 440 160 824 74 385 135 706 135
713 0 10 -85 13 -415 13 -228 0 -415 -3 -415 -6z"/>
<path d="M84831 12608 c-19 -92 -201 -1052 -201 -1060 0 -5 -128 -8 -285 -8
-157 0 -285 -1 -285 -3 0 -8 -131 -654 -136 -669 -5 -17 13 -18 278 -20 l284
-3 -27 -140 c-15 -77 -48 -246 -73 -375 -245 -1261 -230 -1173 -230 -1415 -1
-253 36 -409 129 -560 161 -259 461 -377 918 -362 234 8 406 48 602 142 101
48 277 162 344 221 l43 39 -182 263 c-100 144 -184 262 -186 262 -2 0 -27 -18
-56 -40 -258 -196 -602 -215 -713 -40 -72 114 -72 288 -1 640 24 124 93 473
151 775 58 303 109 560 112 573 l5 22 443 0 444 0 10 53 c6 28 37 184 69 345
l59 292 -447 0 -448 0 9 43 c45 223 209 1064 209 1070 0 4 -186 7 -414 7
l-415 0 -10 -52z"/>
<path d="M78565 11653 c-365 -37 -628 -106 -897 -236 -130 -62 -334 -183 -358
-212 -10 -11 18 -64 150 -285 157 -265 162 -271 183 -257 310 200 637 296 970
284 162 -6 227 -20 342 -76 211 -104 297 -281 260 -539 l-6 -43 -67 6 c-37 3
-89 9 -117 12 -85 9 -453 20 -580 16 -267 -7 -489 -44 -690 -113 -529 -183
-866 -558 -936 -1042 -17 -120 -14 -336 6 -433 60 -283 230 -498 502 -635 258
-129 635 -139 969 -25 170 58 372 182 503 308 52 51 53 51 48 22 -4 -16 -13
-79 -22 -140 -9 -60 -18 -122 -21 -137 l-6 -28 396 0 c218 0 396 2 396 5 0 3
7 38 15 78 13 66 127 661 174 907 11 58 62 328 115 600 52 272 102 549 110
615 74 564 -131 995 -579 1216 -131 65 -290 111 -437 127 -77 9 -355 12 -423
5z m224 -1957 c102 -6 217 -19 277 -31 20 -4 20 -6 -16 -182 -20 -98 -42 -196
-50 -218 -18 -55 -83 -182 -114 -225 -48 -64 -150 -161 -216 -205 -180 -119
-335 -167 -540 -166 -244 0 -406 74 -477 219 -23 48 -28 72 -31 158 -7 186 34
293 162 419 162 161 376 231 710 235 83 0 152 3 154 5 2 2 9 2 15 0 7 -2 63
-6 126 -9z"/>
<path d="M122180 11645 c-259 -32 -516 -119 -729 -247 -423 -253 -771 -685
-926 -1150 -46 -139 -87 -324 -104 -468 -5 -47 -8 -186 -6 -310 4 -250 24
-379 86 -556 155 -441 503 -761 954 -877 161 -41 239 -50 435 -51 266 -1 410
17 621 78 415 121 796 414 1072 824 71 105 184 334 227 457 91 263 124 470
125 790 0 258 -6 311 -56 503 -128 490 -483 841 -977 967 -205 51 -498 68
-722 40z m355 -744 c395 -81 582 -410 554 -971 -17 -334 -119 -596 -328 -837
-155 -178 -371 -314 -566 -354 -118 -25 -310 -22 -410 5 -227 61 -396 234
-479 489 -78 240 -73 602 14 857 116 343 394 651 697 775 140 56 349 71 518
36z"/>
<path d="M126275 11654 c-288 -32 -479 -86 -700 -196 -383 -191 -734 -553
-936 -964 -227 -463 -281 -1073 -137 -1544 11 -36 44 -115 73 -177 211 -446
629 -731 1145 -782 448 -44 892 52 1240 268 398 248 722 661 873 1117 84 255
119 476 119 764 0 471 -122 815 -387 1089 -113 117 -213 193 -341 258 -235
121 -484 175 -786 172 -73 -1 -146 -4 -163 -5z m310 -758 c33 -9 98 -35 145
-58 242 -118 367 -376 375 -778 9 -422 -113 -745 -385 -1021 -214 -218 -436
-319 -699 -319 -183 0 -336 47 -458 142 -60 46 -148 157 -188 238 -119 238
-145 579 -69 889 111 448 475 835 864 917 86 18 332 12 415 -10z"/>
<path d="M107270 11633 c-504 -41 -934 -267 -1265 -664 -331 -396 -499 -913
-490 -1504 3 -195 12 -276 52 -430 68 -264 185 -462 384 -650 232 -218 537
-351 909 -394 121 -14 463 -6 595 13 304 46 603 151 840 295 84 52 275 193
275 204 0 8 -381 541 -405 566 -12 12 -19 9 -52 -16 -188 -149 -459 -276 -680
-320 -136 -27 -381 -24 -498 5 -347 87 -551 342 -572 714 l-6 108 1194 2 1194
3 22 110 c37 188 54 349 54 518 0 369 -82 654 -265 922 -241 352 -608 522
-1131 522 -60 0 -130 -2 -155 -4z m290 -709 c222 -46 384 -206 446 -439 16
-62 29 -271 18 -299 -6 -14 -87 -16 -800 -16 -708 0 -794 2 -794 15 0 20 60
177 90 236 98 191 255 345 445 435 182 85 395 110 595 68z"/>
<path d="M95397 11609 c-330 -27 -558 -125 -861 -369 -48 -39 -90 -69 -93 -66
-3 3 6 81 21 174 14 93 26 174 26 181 0 8 -102 11 -397 9 l-398 -3 -52 -270
c-29 -148 -64 -328 -77 -400 -27 -138 -114 -587 -246 -1265 -44 -228 -101
-518 -125 -645 -59 -309 -153 -793 -161 -828 l-6 -27 418 2 418 3 22 120 c13
66 45 237 73 380 28 143 82 426 121 629 121 633 139 717 180 837 112 336 314
599 550 718 220 111 527 119 688 17 128 -81 182 -214 182 -451 0 -165 9 -109
-124 -795 -58 -300 -143 -744 -191 -988 -47 -244 -85 -450 -85 -458 0 -12 62
-14 414 -14 l414 0 20 108 c12 59 57 296 102 527 45 231 103 535 130 675 27
140 76 395 109 567 69 357 82 468 76 643 -10 318 -94 522 -294 720 -226 223
-473 301 -854 269z"/>
<path d="M111470 11604 c-14 -2 -56 -9 -95 -15 -239 -39 -499 -181 -726 -396
-49 -47 -89 -82 -89 -79 0 3 14 96 30 206 17 110 30 204 30 210 0 7 -138 10
-397 10 l-398 0 -44 -228 c-74 -383 -126 -653 -246 -1272 -63 -327 -136 -701
-161 -830 -44 -228 -199 -1027 -210 -1082 l-6 -28 416 0 c386 0 415 1 420 18
4 15 168 863 216 1117 43 232 112 574 126 628 39 152 116 323 211 466 78 118
245 282 350 345 230 136 530 161 777 64 27 -10 52 -15 56 -11 10 11 293 794
288 797 -42 37 -234 76 -388 81 -74 2 -146 2 -160 -1z"/>
<path d="M73555 11398 c-14 -79 -37 -197 -50 -263 -27 -138 -127 -651 -149
-770 -8 -44 -31 -161 -50 -260 -166 -858 -167 -859 -161 -1090 5 -214 48 -390
131 -536 49 -88 77 -123 156 -201 204 -200 467 -277 843 -247 201 16 367 59
516 135 88 44 254 156 359 242 47 39 86 69 87 68 2 -2 -45 -321 -52 -353 l-5
-23 399 0 400 0 10 53 c6 28 25 124 41 212 102 530 133 693 155 800 13 66 67
343 120 615 171 883 271 1399 319 1643 l23 117 -417 0 -417 0 -11 -57 c-6 -32
-40 -211 -76 -398 -60 -311 -109 -564 -216 -1124 -22 -112 -47 -234 -56 -270
-62 -249 -191 -494 -347 -658 -154 -162 -307 -239 -522 -264 -215 -25 -404 25
-480 129 -39 53 -71 131 -86 207 -16 80 -13 320 5 405 35 168 386 2002 386
2015 0 13 -58 15 -414 15 l-413 0 -28 -142z"/>
<path d="M82695 11528 c-2 -7 -11 -49 -19 -93 -8 -44 -33 -172 -55 -285 -110
-564 -175 -899 -221 -1140 -28 -146 -55 -287 -61 -315 -5 -27 -23 -117 -39
-200 -67 -348 -260 -1342 -266 -1368 l-6 -27 418 2 418 3 21 115 c27 139 285
1472 400 2060 19 96 79 409 135 695 55 286 103 530 105 543 l5 22 -415 0
c-324 0 -417 -3 -420 -12z"/>
<path d="M86695 11483 c8 -32 71 -290 140 -573 69 -283 186 -767 261 -1075 75
-308 185 -762 246 -1010 60 -247 121 -499 135 -560 l25 -110 -92 -165 c-213
-383 -339 -563 -452 -646 -171 -125 -416 -110 -635 39 l-52 35 -30 -51 c-16
-29 -92 -164 -170 -301 -78 -137 -141 -252 -141 -257 0 -11 133 -104 191 -135
176 -89 399 -135 639 -129 394 9 659 192 1033 712 147 205 255 385 1092 1823
450 773 937 1610 1083 1860 347 595 342 588 342 594 0 4 -216 5 -481 4 l-480
-3 -317 -595 c-174 -327 -333 -625 -352 -661 -510 -958 -576 -1078 -582 -1062
-6 14 -368 1820 -446 2223 l-18 95 -476 3 -476 2 13 -57z"/>
<path d="M92006 11523 c-3 -10 -27 -135 -55 -278 -70 -365 -209 -1080 -297
-1535 -41 -212 -127 -650 -189 -975 -63 -324 -117 -600 -120 -612 l-5 -23 418
0 418 0 26 143 c15 78 45 234 67 347 22 113 115 590 206 1060 247 1274 292
1508 330 1701 19 97 35 179 35 182 0 4 -186 7 -414 7 -386 0 -415 -1 -420 -17z"/>
<path d="M102060 11529 c0 -11 56 -277 351 -1659 168 -787 296 -1387 335
-1570 19 -91 37 -173 40 -182 5 -17 33 -18 413 -18 l408 0 205 343 c113 188
373 623 578 967 205 344 475 796 600 1005 125 209 318 533 430 720 111 187
211 355 222 373 l20 32 -480 0 -479 0 -633 -1182 c-348 -651 -645 -1203 -659
-1227 l-25 -45 -52 320 c-54 329 -66 409 -235 1464 -55 344 -102 635 -104 648
l-5 22 -465 0 c-342 0 -465 -3 -465 -11z"/>
<path d="M112230 11531 c0 -4 70 -296 156 -647 85 -351 182 -749 214 -884 33
-135 77 -317 99 -405 21 -88 82 -338 134 -555 53 -217 123 -504 156 -638 l59
-243 -109 -195 c-241 -430 -363 -590 -506 -661 -63 -31 -87 -37 -159 -41 -141
-7 -265 28 -388 109 -33 22 -64 38 -70 36 -11 -5 -341 -583 -341 -598 0 -15
111 -91 195 -134 274 -138 642 -172 913 -85 287 93 517 311 843 797 116 173
191 298 616 1028 283 486 642 1103 1013 1740 169 290 790 1357 802 1378 2 4
-213 7 -479 7 l-483 0 -270 -507 c-148 -279 -295 -554 -326 -612 -213 -404
-643 -1207 -649 -1214 -4 -5 -112 518 -240 1162 l-234 1171 -473 0 c-260 0
-473 -4 -473 -9z"/>
<path d="M46125 9188 c-3 -7 -4 -236 -3 -508 l3 -495 7693 -3 7692 -2 0 510 0
510 -7690 0 c-6143 0 -7692 -3 -7695 -12z"/>
<path d="M134690 8690 l0 -510 7695 0 7695 0 0 510 0 510 -7695 0 -7695 0 0
-510z"/>
</g>
</svg>
